<?xml version="1.0" encoding="utf-8"?>
<!-- Generator: Adobe Illustrator 18.0.0, SVG Export Plug-In . SVG Version: 6.00 Build 0)  -->
<!DOCTYPE svg PUBLIC "-//W3C//DTD SVG 1.1//EN" "http://www.w3.org/Graphics/SVG/1.1/DTD/svg11.dtd">
<svg version="1.1" id="Layer_1" xmlns="http://www.w3.org/2000/svg" xmlns:xlink="http://www.w3.org/1999/xlink" x="0px" y="0px"
	 viewBox="0 0 300 90" enable-background="new 0 0 300 90" xml:space="preserve">
<g>
	<g>
		<linearGradient id="SVGID_1_" gradientUnits="userSpaceOnUse" x1="143.1936" y1="-9.1928" x2="131.8335" y2="98.8915">
			<stop  offset="0" style="stop-color:#D6CC70"/>
			<stop  offset="1" style="stop-color:#FFFFFF"/>
		</linearGradient>
		<polygon fill-rule="evenodd" clip-rule="evenodd" fill="url(#SVGID_1_)" points="161,26.1 160.3,24.7 160.1,24.4 159.9,24 
			159.7,23.7 159.5,23.4 159.3,23.1 159.1,22.8 158.9,22.5 158.7,22.2 158.5,21.9 158.3,21.6 158.1,21.3 157.9,21.1 157.7,20.8 
			157.5,20.6 157.3,20.3 157,20.1 156.8,19.9 156.6,19.6 156.4,19.4 156.1,19.2 155.9,19 155.7,18.8 155.5,18.7 155.2,18.5 
			155,18.3 154.8,18.1 154.5,18 154.3,17.8 154,17.7 153.8,17.6 153.5,17.4 153.3,17.3 153,17.2 152.8,17.1 152.5,17 152.2,16.9 
			152,16.8 151.7,16.7 151.4,16.6 151.1,16.5 150.9,16.4 150.6,16.4 150.3,16.3 150,16.3 149.7,16.2 149.4,16.2 149.1,16.1 
			148.8,16.1 148.4,16.1 148.1,16.1 147.8,16 147.5,16 147.1,16 146.8,16 146.4,16 146.1,16.1 145.8,16.1 145.4,16.1 145,16.1 
			144.7,16.2 144.3,16.2 143.9,16.3 143.6,16.4 143,16.5 142.4,16.6 141.8,16.7 141.2,16.9 140.7,17 140.1,17.2 139.5,17.4 
			138.9,17.6 138.4,17.9 137.8,18.1 137.3,18.4 136.7,18.6 136.1,18.9 135.6,19.2 135,19.6 134.5,19.9 133.9,20.3 133.4,20.6 
			132.9,21 132.3,21.4 131.8,21.8 131.2,22.3 130.7,22.7 130.2,23.2 129.6,23.7 129.1,24.2 128.6,24.7 128.1,25.2 127.5,25.8 
			127,26.4 126.5,26.9 126,27.5 125.5,28.1 125,28.8 124.5,29.4 124.1,30 123.6,30.6 123.2,31.3 122.7,31.9 122.3,32.5 121.9,33.2 
			121.5,33.8 121.1,34.5 120.8,35.1 120.4,35.8 120.1,36.4 119.8,37.1 119.4,37.8 119.1,38.4 118.8,39.1 118.6,39.8 118.3,40.5 
			118,41.2 117.8,41.9 117.6,42.5 117.4,43.2 117.2,44 117,44.7 116.8,45.4 116.6,46.1 116.5,46.8 116.3,47.5 116.2,48.3 116.1,49 
			116,49.8 115.9,50.5 115.8,51.3 115.7,52 115.7,52.8 115.7,53.5 115.6,54.2 115.6,54.9 115.6,55.6 115.6,56.3 115.7,57 
			115.7,57.6 115.8,58.3 115.9,58.9 116,59.5 116.1,60.1 116.2,60.7 116.3,61.3 116.5,61.9 116.6,62.5 116.8,63 117,63.6 
			117.2,64.1 117.4,64.6 117.6,65.2 117.9,65.7 118.1,66.2 118.4,66.7 118.7,67.1 119,67.6 119.3,68.1 119.6,68.5 120,68.9 
			120.3,69.4 120.7,69.8 121,70.1 121.4,70.5 121.7,70.8 122.1,71.2 122.5,71.5 122.9,71.8 123.3,72 123.7,72.3 124.1,72.5 
			124.5,72.8 124.9,73 125.3,73.2 125.8,73.3 126.2,73.5 126.7,73.6 127.1,73.8 127.6,73.9 128.1,74 128.6,74 129.1,74.1 
			129.6,74.2 130.1,74.2 130.6,74.2 131.2,74.2 131.7,74.2 132.3,74.1 132.8,74.1 133.4,74 134,73.9 134.4,73.9 134.7,73.8 
			135.1,73.7 135.5,73.6 135.8,73.5 136.2,73.4 136.5,73.4 136.9,73.3 137.3,73.1 137.6,73 138,72.9 138.3,72.8 138.7,72.7 
			139,72.5 139.4,72.4 139.7,72.2 140.1,72.1 140.4,71.9 140.7,71.8 141.1,71.6 141.4,71.4 141.8,71.3 142.1,71.1 142.4,70.9 
			142.8,70.7 143.1,70.5 143.4,70.3 143.8,70.1 144.1,69.9 144.4,69.7 144.8,69.4 145.1,69.2 145.4,69 145.8,68.7 146.1,68.5 
			146.4,68.2 146.7,68 147,67.7 147.4,67.4 147.7,67.1 148,66.9 148.3,66.6 148.6,66.3 148.9,66 149.2,65.7 149.5,65.4 149.9,65.1 
			150.2,64.7 150.5,64.4 150.8,64.1 151.1,63.7 151.4,63.4 151.7,63.1 152,62.7 152.3,62.3 152.6,62 152.8,61.6 153.1,61.2 
			153.4,60.9 153.7,60.5 154,60.1 154.3,59.7 154.6,59.3 155.2,58.3 166.1,56.5 164.2,60 163.8,60.6 163.4,61.2 163.1,61.8 
			162.7,62.4 162.3,63 161.9,63.6 161.6,64.1 161.2,64.7 160.8,65.3 160.4,65.8 160,66.4 159.6,66.9 159.2,67.4 158.7,67.9 
			158.3,68.5 157.9,69 157.5,69.5 157,70 156.6,70.5 156.1,70.9 155.7,71.4 155.2,71.9 154.8,72.4 154.3,72.8 153.9,73.3 
			153.4,73.7 152.9,74.1 152.4,74.5 151.9,75 151.4,75.4 151,75.8 150.5,76.2 150,76.5 149.5,76.9 148.9,77.3 148.4,77.6 147.9,78 
			147.4,78.3 146.9,78.7 146.4,79 145.9,79.3 145.4,79.6 144.8,79.9 144.3,80.2 143.8,80.4 143.2,80.7 142.7,80.9 142.2,81.2 
			141.6,81.4 141.1,81.6 140.6,81.9 140,82.1 139.5,82.3 138.9,82.4 138.4,82.6 137.8,82.8 137.3,82.9 136.7,83.1 136.2,83.2 
			135.6,83.4 135,83.5 134.5,83.6 133.9,83.7 133.1,83.8 132.2,83.9 131.4,84 130.5,84.1 129.7,84.1 128.9,84.1 128.1,84.1 
			127.3,84.1 126.5,84 125.8,84 125,83.9 124.3,83.7 123.5,83.6 122.8,83.4 122.1,83.2 121.4,83 120.7,82.7 120,82.4 119.4,82.1 
			118.7,81.8 118.1,81.5 117.4,81.1 116.8,80.7 116.2,80.3 115.6,79.8 115.1,79.4 114.5,78.9 114,78.3 113.4,77.8 112.9,77.2 
			112.4,76.7 111.9,76.1 111.4,75.4 111,74.8 110.6,74.1 110.1,73.5 109.8,72.8 109.4,72.1 109,71.4 108.7,70.7 108.4,69.9 
			108.1,69.2 107.8,68.4 107.6,67.6 107.3,66.8 107.1,66 106.9,65.2 106.8,64.4 106.6,63.6 106.5,62.7 106.4,61.9 106.3,61 
			106.2,60.1 106.2,59.2 106.2,58.3 106.1,57.3 106.2,56.4 106.2,55.5 106.2,54.5 106.3,53.5 106.4,52.5 106.5,51.5 106.6,50.5 
			106.8,49.5 106.8,49 106.9,48.5 107,48 107.1,47.6 107.2,47.1 107.3,46.6 107.4,46.1 107.5,45.6 107.6,45.2 107.7,44.7 
			107.8,44.2 108,43.7 108.1,43.3 108.2,42.8 108.4,42.3 108.5,41.8 108.7,41.4 108.8,40.9 109,40.4 109.1,40 109.3,39.5 109.5,39 
			109.6,38.6 109.8,38.1 110,37.6 110.2,37.2 110.4,36.7 110.6,36.2 110.8,35.8 111,35.3 111.2,34.9 111.4,34.4 111.6,33.9 
			111.9,33.5 112.1,33 112.3,32.6 112.6,32.1 112.8,31.7 113,31.2 113.3,30.8 113.5,30.3 113.8,29.9 114.1,29.5 114.3,29 
			114.6,28.6 114.9,28.2 115.1,27.7 115.4,27.3 115.7,26.9 116,26.5 116.3,26 116.6,25.6 116.9,25.2 117.2,24.8 117.5,24.4 
			117.8,24 118.1,23.5 118.5,23.1 118.8,22.7 119.1,22.3 119.5,21.9 119.8,21.5 120.1,21.1 120.5,20.7 120.8,20.4 121.1,20 
			121.5,19.6 121.8,19.3 122.1,18.9 122.5,18.6 122.8,18.2 123.1,17.9 123.5,17.6 123.8,17.2 124.1,16.9 124.5,16.6 124.8,16.3 
			125.2,15.9 125.5,15.6 125.9,15.3 126.2,15 126.6,14.7 126.9,14.4 127.3,14.2 127.6,13.9 128,13.6 128.3,13.3 128.7,13.1 
			129.1,12.8 129.4,12.5 129.8,12.3 130.2,12 130.5,11.8 130.9,11.5 131.3,11.3 131.6,11.1 132,10.9 132.4,10.6 132.8,10.4 
			133.1,10.2 133.5,10 133.9,9.8 134.3,9.6 134.7,9.4 135,9.2 135.4,9 135.8,8.9 136.2,8.7 136.6,8.5 137,8.4 137.4,8.2 137.8,8 
			138.2,7.9 138.5,7.8 138.9,7.6 139.3,7.5 139.7,7.4 140.1,7.2 140.5,7.1 140.9,7 141.3,6.9 141.7,6.8 142.1,6.7 142.5,6.6 
			143,6.5 143.4,6.4 143.8,6.4 144.2,6.3 144.8,6.2 145.3,6.1 145.9,6.1 146.5,6 147.1,5.9 147.6,5.9 148.2,5.9 148.7,5.9 
			149.3,5.9 149.8,5.9 150.4,5.9 150.9,5.9 151.4,6 152,6 152.5,6.1 153,6.2 153.5,6.3 154,6.4 154.5,6.5 155,6.6 155.5,6.7 
			156,6.9 156.5,7 157,7.2 157.4,7.4 157.9,7.6 158.4,7.8 158.8,8 159.3,8.2 159.7,8.5 160.2,8.7 160.6,9 161,9.3 161.5,9.6 
			161.9,9.9 162.3,10.2 162.7,10.5 163.1,10.8 163.5,11.2 163.8,11.5 164.2,11.9 164.6,12.2 164.9,12.6 165.2,13 165.6,13.4 
			165.9,13.8 166.2,14.2 166.5,14.6 166.8,15.1 167.1,15.5 167.4,16 167.7,16.4 168,16.9 168.2,17.4 168.5,17.9 168.7,18.4 
			169,18.9 169.2,19.4 169.4,19.9 169.6,20.5 169.8,21 170,21.6 170.2,22.1 		"/>
		<path fill="#020202" d="M128.9,84.4l-1.6,0l-1.6-0.1l-1.5-0.2l-1.5-0.3l-1.4-0.4l-1.4-0.5l-1.3-0.6l-1.3-0.7l-1.2-0.8l-1.2-0.9
			l-1.1-1l-1.1-1.1l-1-1.2l-0.9-1.3l-0.9-1.3l-0.8-1.4l-0.7-1.4l-0.6-1.5l-0.5-1.6l-0.4-1.6l-0.4-1.7l-0.3-1.7L106,61l-0.1-1.8
			l0-1.9l0-1.9l0.1-2l0.2-2l0.6-4l0.8-3.4l1-3.3l1.2-3.3l1.6-3.7l1.7-3.2l2.1-3.5l2.4-3.4l3-3.6l2.7-2.8l2.8-2.5l2.9-2.2l2.6-1.7
			l2.7-1.5l2.7-1.3l2.8-1l2.8-0.8l2.2-0.4l1.7-0.2l1.7-0.1l1.1,0l1.6,0.1l1.6,0.2l1.6,0.3l1.5,0.4l1.5,0.5l1.4,0.6l1.4,0.7l1.3,0.8
			l1.3,0.9l1.2,1l1.1,1.1l1,1.2l1,1.3l0.9,1.3l0.8,1.4l0.7,1.5l0.7,1.6l0.7,2l-9.8,4.2l-1.8-3.3l-1.2-1.7l-1.3-1.4l-1.1-1l-1.1-0.8
			l-1.2-0.7l-1.3-0.5l-1.4-0.4l-1.5-0.2l-1.9-0.1l-2.1,0.1l-1.5,0.2l-1.7,0.4l-1.7,0.5l-1.7,0.6l-1.7,0.8l-1.6,0.9l-1.6,1.1
			l-1.6,1.2l-1.6,1.3l-1.6,1.5l-1.6,1.6l-1.5,1.8l-1.4,1.8l-1.3,1.9l-1.2,1.9l-1.1,1.9l-1,2l-0.9,2l-0.8,2l-0.6,2.1l-0.5,2.1
			l-0.4,2.2l-0.3,2.3l-0.2,2.2l-0.1,2.1l0.1,2l0.2,1.9l0.3,1.8l0.4,1.7l0.4,1.1l0.4,1l0.5,1l0.5,1l0.6,0.9l0.6,0.9l0.7,0.8l0.7,0.8
			l0.7,0.7l0.7,0.6l0.8,0.6l0.8,0.5l0.8,0.4l0.8,0.4l0.9,0.3l0.9,0.2l0.9,0.2l1,0.1l1,0l1.1,0l1.1-0.1l2.2-0.4l2.1-0.6l2.1-0.7
			l2-0.9l2-1.1l2.3-1.6l2.2-1.8l2.2-2.1l2.1-2.4l2-2.6l1-1.5l11.7-2l-3.7,6.5l-1.9,2.9l-1.6,2.2l-1.7,2.1l-1.8,2l-1.9,1.8l-1.9,1.7
			l-2,1.6l-2,1.5l-2.1,1.3l-2.1,1.2l-2.2,1l-2.2,0.8l-2.2,0.7l-2.3,0.5L134,84l-1.7,0.2l-1.7,0.2L128.9,84.4z M149.3,6.2l-1.6,0
			l-1.7,0.1L143,6.8l-2.8,0.7l-2.7,0.9l-2.7,1.2l-2.6,1.4l-2.6,1.7l-2.5,1.9l-2.8,2.4l-2.7,2.7l-3,3.5l-2.5,3.3l-2.2,3.4l-1.9,3.6
			l-1.7,3.7l-1.2,3.2l-1,3.3l-0.8,3.3l-0.4,2.4l-0.3,2l-0.2,2l-0.1,1.9l0,1.9l0,1.8l0.1,1.8l0.2,1.7l0.3,1.7l0.4,1.6l0.4,1.6
			l0.5,1.5l0.6,1.5l0.7,1.4l0.8,1.4l0.8,1.3l0.9,1.2l1,1.2l1,1.1l1.1,1l1.1,0.9l1.2,0.8l1.2,0.7l1.3,0.6l1.3,0.5l1.4,0.4l1.4,0.3
			l1.5,0.2l1.5,0.1l1.6,0l1.6-0.1l1.7-0.1l2.3-0.3l2.2-0.5l2.2-0.6l2.2-0.8l2.1-0.9l2.1-1.1l2.1-1.2l2-1.4l2-1.5l1.9-1.7l1.8-1.8
			l1.8-1.9l1.7-2l1.6-2.1l1.6-2.2l1.8-3l2-3.5l-10.1,1.7l-2.6,3.6l-2.1,2.4l-2.2,2.2l-2.2,1.9l-2.3,1.6l-2,1.2l-2.1,1l-2.1,0.8
			l-2.2,0.6l-1.5,0.3l-1.8,0.2l-1.1,0.1l-0.5,0l-1.1,0l-1-0.1l-1-0.2l-1-0.2l-0.9-0.3l-0.9-0.4l-0.9-0.4l-0.8-0.5l-0.8-0.6l-0.8-0.6
			l-0.7-0.7l-0.7-0.8l-0.7-0.9l-0.6-0.9l-0.6-1l-0.5-1l-0.5-1l-0.4-1.1l-0.4-1.1l-0.3-1.2l-0.3-1.2l-0.2-1.3l-0.2-2l-0.1-2.1
			l0.1-2.2l0.2-2.3l0.3-2.3l0.4-2.2l0.5-2.2l0.7-2.1l0.8-2.1l0.9-2l1-2l1.1-2l1.2-1.9l1.3-1.9l1.5-1.9l1.5-1.8l1.6-1.7L130,23
			l1.6-1.4l1.6-1.2l1.7-1.1l1.7-0.9l1.7-0.8l1.7-0.6l1.7-0.5l1.2-0.3l2.5-0.3l1.8-0.1l2,0.1l1.5,0.3l1.4,0.4l1.3,0.5l1.3,0.7
			l1.2,0.9l1.2,1l1.1,1.2l1,1.4l1.2,1.9l0.8,1.5l8.7-3.7l-0.7-1.9l-0.7-1.5l-0.8-1.5l-0.8-1.4l-0.9-1.3l-1-1.2l-1-1.1l-1.1-1
			l-1.2-0.9l-1.2-0.8l-1.3-0.7l-1.4-0.6l-1.4-0.5l-1.4-0.4l-1.5-0.3l-1.5-0.2l-1.6-0.1L149.3,6.2z"/>
	</g>
	<g>
		<path fill-rule="evenodd" clip-rule="evenodd" fill="#F58220" d="M164.5,24.6c-2-4-4.1-7.4-7.1-8.9c-3-1.5-6.7-1.9-10.9-1.2
			c-6.7,1.1-12.9,5-18.5,11.7c-5.6,6.7-9,14.1-10.3,22.2c-1.3,8.6,0,15.5,3.8,20.7c3.8,5.1,9.1,7.1,15.9,6c4.2-0.7,8.1-2.4,11.7-5
			c3.7-2.6,7.2-7.9,10.3-12.4l7.2-0.3c-3.7,6.5-8.3,12.7-13.5,16.8c-5.1,4.1-10.6,6.6-16.3,7.6c-8.8,1.5-15.7-0.9-20.5-7.1
			c-4.8-6.2-6.4-14.6-4.8-25.4c0.7-5,2.3-9.9,4.5-14.7c2.3-4.8,5.2-9.2,8.8-13.3c3.4-3.9,7-7,10.8-9.3c3.8-2.4,7.8-3.9,12-4.6
			c6-1,11.6-0.8,15.4,2.5c3.8,3.3,5.3,6.5,7.4,12.2L164.5,24.6z"/>
	</g>
	<g>
		<path fill-rule="evenodd" clip-rule="evenodd" fill="#F58220" d="M247.8,52.6l4.7-17.1c1.1-4,4.4-6,10-6c2.1,0,3.9,0.5,5.3,1.4
			c1.4,0.9,1.8,2.4,1.2,4.4l-4.8,17.6c-1.1,3.9-4.3,5.8-9.7,5.8C248.9,58.7,246.7,56.7,247.8,52.6L247.8,52.6z M245.1,58.3l1.3-4.8
			c-1.7,0-2.7-0.1-3.2-0.4c-0.4-0.3-0.5-0.8-0.3-1.7l4.8-17.4h3.8l1.2-4.2h-3.8l1.6-5.8h-7l-1.6,5.8h-3.1l-1.2,4.2h3.1l-4.8,17.4
			c-0.7,2.7-0.9,4.5-0.6,5.5c0.4,0.9,2.1,1.4,5.3,1.4H245.1L245.1,58.3z M233,46.2h-9.4l-1.8,6.7c-0.3,1,0,1.4,0.8,1.4
			c0.8,0,1.3-0.5,1.6-1.4l1.6-5.8h7l-1.6,5.8c-1.1,3.9-4.3,5.8-9.8,5.8c-5.4,0-7.6-2-6.5-6l4.7-17.1c1.1-4,4.4-6,9.8-6
			c5.5,0,7.7,1.9,6.7,5.8L233,46.2L233,46.2z M211.6,58.3l9.7-35.3h-7l-9.7,35.3H211.6L211.6,58.3z M193.8,57.6l-1.8,6.7h-7
			l9.5-34.6h5.3l0.3,1.2c1.4-0.9,2.9-1.4,4.5-1.4c1.6,0,3,0.4,4.1,1.2c1.1,0.8,1.5,2,1.1,3.5L204,54.7c-0.3,1.2-1.1,2.2-2.3,2.9
			c-1.2,0.7-2.5,1.1-3.9,1.1C195.9,58.7,194.5,58.3,193.8,57.6L193.8,57.6z M185,58.3l6.8-24.6c0.4-1.3,0.1-2.3-0.8-3
			c-0.9-0.7-1.9-1.1-3.1-1.1c-2.1,0-4,0.6-5.6,1.9c-1-1.3-2.3-1.9-3.9-1.9c-1.9,0-3.5,0.4-4.7,1.2l0.3-1h-7l-7.9,28.6h7l6.3-22.9
			c0.2-0.8,0.8-1.3,1.6-1.3c0.8,0,1.1,0.4,0.9,1.3l-6.3,22.9h7l6.3-22.9c0.2-0.8,0.8-1.3,1.6-1.3c0.8,0,1.1,0.4,0.9,1.3L178,58.3
			H185L185,58.3z M142.8,52.6l4.7-17.1c1.1-4,4.4-6,10-6c2.1,0,3.9,0.5,5.3,1.4c1.4,0.9,1.8,2.4,1.2,4.4l-4.8,17.6
			c-1.1,3.9-4.3,5.8-9.7,5.8C143.9,58.7,141.7,56.7,142.8,52.6L142.8,52.6z M152.2,52.8l4.8-17.5c0.3-0.9,0-1.4-0.8-1.4
			c-0.8,0-1.4,0.5-1.6,1.4l-4.8,17.5c-0.3,1,0,1.4,0.8,1.4C151.4,54.3,151.9,53.8,152.2,52.8L152.2,52.8z M257.2,52.8l4.8-17.5
			c0.3-0.9,0-1.4-0.8-1.4c-0.8,0-1.4,0.5-1.6,1.4l-4.8,17.5c-0.3,1,0,1.4,0.8,1.4C256.4,54.3,256.9,53.8,257.2,52.8L257.2,52.8z
			 M227.1,41.9l1.8-6.5c0.3-0.9,0-1.4-0.8-1.4c-0.8,0-1.4,0.5-1.6,1.4l-1.8,6.5H227.1L227.1,41.9z M197.5,52.9l4.9-17.7
			c0.2-0.9,0-1.3-0.9-1.3c-0.8,0-1.3,0.4-1.6,1.3L195,53c-0.2,0.8,0.1,1.3,0.9,1.3C196.7,54.3,197.2,53.8,197.5,52.9z"/>
		<path fill="#020202" d="M192.2,64.7h-7.6l9.7-35.2h5.8l0.2,1c1.3-0.8,2.8-1.2,4.2-1.2c1.7,0,3.1,0.4,4.3,1.3
			c1.2,0.9,1.7,2.2,1.2,3.8l-5.6,20.5c-0.3,1.3-1.2,2.3-2.4,3.1c-1.2,0.7-2.6,1.1-4.1,1.1c-1.8,0-3-0.3-3.9-0.8L192.2,64.7z
			 M185.3,64h6.3l1.9-7l0.4,0.4c0.7,0.6,2,1,3.8,1c1.3,0,2.6-0.3,3.7-1c1.1-0.7,1.8-1.6,2.1-2.7l5.6-20.5c0.4-1.4,0.1-2.4-1-3.1
			c-1.1-0.8-2.4-1.2-3.9-1.2c-1.5,0-2.9,0.4-4.3,1.3l-0.4,0.2l-0.3-1.3h-4.8L185.3,64z M254.5,59c-3.3,0-5.4-0.7-6.5-2.1
			c-0.8-1.1-1-2.5-0.5-4.3l4.7-17.1c1.1-4.2,4.6-6.3,10.3-6.3c2.2,0,4,0.5,5.5,1.5c1.5,1,1.9,2.6,1.4,4.7L264.5,53
			C263.4,57,260,59,254.5,59z M262.5,29.8c-5.4,0-8.6,1.9-9.7,5.8l-4.7,17.1c-0.4,1.6-0.3,2.9,0.4,3.8c0.9,1.2,3,1.8,6,1.8
			c5.3,0,8.4-1.8,9.4-5.6l4.8-17.6c0.5-1.9,0.1-3.2-1.1-4C266.3,30.3,264.6,29.8,262.5,29.8z M221.3,59c-3.2,0-5.3-0.7-6.3-2.1
			c-0.8-1.1-1-2.5-0.5-4.4l4.7-17.1c1.1-4.2,4.6-6.3,10.1-6.3c3.3,0,5.4,0.7,6.5,2.1c0.8,1,0.9,2.4,0.5,4.1l-3.1,11.1h-9.4l-1.8,6.4
			c-0.1,0.4-0.1,0.7,0,0.9c0.1,0.1,0.3,0.2,0.5,0.2c0.4,0,1-0.1,1.3-1.2l1.6-6h7.6l-1.7,6.2C230.3,57,226.9,59,221.3,59z
			 M229.3,29.8c-5.3,0-8.4,1.9-9.5,5.8l-4.7,17.1c-0.5,1.6-0.3,2.9,0.4,3.8c0.9,1.2,2.9,1.8,5.8,1.8c5.4,0,8.5-1.8,9.5-5.6l1.5-5.4
			H226l-1.5,5.5c-0.4,1.4-1.2,1.7-1.9,1.7c-0.5,0-0.8-0.1-1-0.4c-0.2-0.3-0.3-0.8-0.1-1.4l1.9-6.9h9.4l2.9-10.6
			c0.4-1.5,0.3-2.7-0.4-3.6C234.4,30.4,232.4,29.8,229.3,29.8z M149.5,59c-3.3,0-5.4-0.7-6.5-2.1c-0.8-1.1-1-2.5-0.5-4.3l4.7-17.1
			c1.1-4.2,4.6-6.3,10.3-6.3c2.2,0,4,0.5,5.5,1.5c1.5,1,1.9,2.6,1.4,4.7L159.5,53C158.4,57,155,59,149.5,59z M157.5,29.8
			c-5.4,0-8.6,1.9-9.7,5.8l-4.7,17.1c-0.4,1.6-0.3,2.9,0.4,3.8c0.9,1.2,3,1.8,6,1.8c5.3,0,8.4-1.8,9.4-5.6l4.8-17.6
			c0.5-1.9,0.1-3.2-1.1-4C161.3,30.3,159.6,29.8,157.5,29.8z M245.3,58.6h-4.7c-3.3,0-5.2-0.5-5.6-1.6c-0.4-1-0.2-2.9,0.6-5.7
			l4.7-17h-3.1l1.3-4.9h3.1l1.6-5.8h7.7l-1.6,5.8h3.8l-1.3,4.9H248l-4.7,17.1c-0.3,1,0,1.3,0.2,1.3c0.3,0.2,1,0.4,3,0.4h0.4
			L245.3,58.6z M238,33.6h3.1l-4.9,17.8c-0.7,2.6-0.9,4.4-0.6,5.3c0.2,0.5,1.1,1.2,5,1.2h4.2l1.2-4.2c-1.5,0-2.5-0.2-2.9-0.5
			c-0.5-0.4-0.7-1.1-0.4-2l4.8-17.6h3.8l1-3.6h-3.8l1.6-5.8h-6.4l-1.6,5.8H239L238,33.6z M211.9,58.6h-7.7l9.9-35.9h7.7L211.9,58.6z
			 M205,58h6.4l9.5-34.6h-6.4L205,58z M185.2,58.6h-7.6l6.4-23.2c0.1-0.3,0.1-0.6,0-0.7c-0.1-0.1-0.4-0.2-0.5-0.2
			c-0.7,0-1.1,0.3-1.3,1l-6.4,23.1h-7.6l6.4-23.3c0.1-0.3,0.1-0.6,0-0.7c-0.1-0.1-0.4-0.2-0.5-0.2c-0.7,0-1.1,0.3-1.3,1l-6.4,23.2
			h-7.6l8-29.2h7.6l-0.2,0.7c1.1-0.6,2.5-0.9,4.2-0.9c1.6,0,2.9,0.6,3.9,1.8c1.6-1.2,3.4-1.8,5.5-1.8c1.3,0,2.4,0.4,3.3,1.2
			c1,0.8,1.3,1.9,0.9,3.4L185.2,58.6z M178.4,58h6.3l6.7-24.4c0.3-1.2,0.1-2.1-0.7-2.7c-0.8-0.7-1.8-1-2.9-1c-2.1,0-3.9,0.6-5.4,1.9
			l-0.3,0.2l-0.2-0.3c-0.9-1.2-2.1-1.8-3.6-1.8c-1.9,0-3.4,0.4-4.5,1.2l-0.7,0.5l0.4-1.4h-6.3L159.6,58h6.3l6.2-22.7
			c0.3-1,0.9-1.5,1.9-1.5c0.5,0,0.8,0.1,1,0.4c0.2,0.3,0.3,0.7,0.1,1.3L169,58h6.3l6.2-22.7c0.3-1,0.9-1.5,1.9-1.5
			c0.5,0,0.8,0.1,1,0.4c0.2,0.3,0.3,0.7,0.1,1.3L178.4,58z M255.6,54.6c-0.5,0-0.8-0.1-1-0.4c-0.2-0.3-0.3-0.8-0.1-1.4l4.8-17.5
			c0.4-1.4,1.3-1.6,1.9-1.6c0.5,0,0.8,0.1,1,0.4c0.2,0.3,0.3,0.8,0.1,1.4l-4.8,17.5C257.1,54.3,256.3,54.6,255.6,54.6z M261.2,34.3
			c-0.7,0-1.1,0.4-1.3,1.2l-4.8,17.5c-0.1,0.4-0.1,0.7,0,0.9c0.1,0.1,0.3,0.2,0.5,0.2c0.4,0,1-0.1,1.3-1.2l4.8-17.5
			c0.1-0.4,0.1-0.7,0-0.8C261.6,34.3,261.5,34.3,261.2,34.3z M150.6,54.6c-0.5,0-0.8-0.1-1-0.4c-0.2-0.3-0.3-0.8-0.1-1.4l4.8-17.5
			c0.4-1.4,1.3-1.6,1.9-1.6c0.5,0,0.8,0.1,1,0.4c0.2,0.3,0.3,0.8,0.1,1.4l-4.8,17.5C152.1,54.3,151.2,54.6,150.6,54.6z M156.2,34.3
			c-0.7,0-1.1,0.4-1.3,1.2L150,52.9c-0.1,0.4-0.1,0.7,0,0.9c0.1,0.1,0.3,0.2,0.5,0.2c0.4,0,1-0.1,1.3-1.2l4.8-17.5
			c0.1-0.4,0.1-0.7,0-0.8C156.6,34.3,156.4,34.3,156.2,34.3z M195.9,54.6c-0.5,0-0.9-0.1-1.1-0.4c-0.2-0.3-0.3-0.7-0.1-1.2l4.9-17.7
			c0.3-1,0.9-1.5,1.9-1.5c0.5,0,0.8,0.1,1,0.4c0.2,0.3,0.3,0.7,0.1,1.3L197.8,53C197.4,54.3,196.6,54.6,195.9,54.6z M201.5,34.3
			c-0.7,0-1.1,0.3-1.3,1.1l-4.9,17.7c-0.1,0.3-0.1,0.6,0,0.7c0.1,0.1,0.4,0.2,0.6,0.2c0.7,0,1.1-0.3,1.3-1.1l4.9-17.7
			c0.1-0.3,0.1-0.6,0-0.7C201.9,34.3,201.7,34.3,201.5,34.3z M227.4,42.2h-3.1l1.9-6.9c0.4-1.4,1.2-1.6,1.9-1.6c0.5,0,0.8,0.1,1,0.4
			c0.2,0.3,0.3,0.8,0.1,1.4L227.4,42.2z M225.1,41.6h1.8l1.7-6.3c0.1-0.4,0.1-0.7,0-0.8c-0.1-0.1-0.3-0.2-0.5-0.2
			c-0.4,0-1,0.1-1.3,1.2L225.1,41.6z"/>
	</g>
	<path fill-rule="evenodd" clip-rule="evenodd" fill="#6C6C6C" d="M201.7,68.6v9h2.3c1.4,0,2.5-0.4,3.3-1.2c0.8-0.8,1.1-1.9,1.1-3.4
		c0-0.7-0.1-1.4-0.4-2c-0.3-0.6-0.6-1.1-1.1-1.5c-0.4-0.3-0.8-0.5-1.2-0.7c-0.4-0.1-1.1-0.2-1.9-0.2H201.7L201.7,68.6z M200.7,67.5
		h3.2c0.9,0,1.6,0.1,2.2,0.3c0.6,0.2,1.1,0.4,1.6,0.8c0.6,0.5,1.1,1.2,1.5,2c0.4,0.8,0.5,1.6,0.5,2.5c0,1-0.2,1.9-0.6,2.7
		c-0.4,0.8-0.9,1.5-1.6,2c-0.5,0.3-1,0.6-1.5,0.7c-0.5,0.1-1.4,0.2-2.5,0.2h-2.7V67.5z"/>
	<path fill-rule="evenodd" clip-rule="evenodd" fill="#6C6C6C" d="M212,78.6h-1.1v-8.4h1v1c0.3-0.4,0.5-0.6,0.9-0.8
		c0.3-0.2,0.7-0.3,1.1-0.3l0,1.2c-0.7,0.1-1.2,0.3-1.4,0.6c-0.3,0.3-0.4,0.9-0.4,1.7V78.6z"/>
	<path fill-rule="evenodd" clip-rule="evenodd" fill="#6C6C6C" d="M215.5,74.4c0,1,0.3,1.8,0.9,2.4c0.6,0.7,1.4,1,2.3,1
		c0.9,0,1.7-0.3,2.3-1c0.6-0.7,0.9-1.5,0.9-2.4c0-1-0.3-1.8-0.9-2.4c-0.6-0.6-1.4-1-2.4-1c-0.9,0-1.6,0.3-2.2,1
		C215.8,72.6,215.5,73.5,215.5,74.4L215.5,74.4z M214.3,74.4c0-1.2,0.4-2.3,1.3-3.1c0.8-0.9,1.8-1.3,3-1.3c1.2,0,2.2,0.4,3.1,1.3
		c0.9,0.9,1.3,1.9,1.3,3.1c0,1.2-0.4,2.3-1.3,3.2c-0.8,0.9-1.9,1.3-3,1.3c-1.2,0-2.2-0.4-3.1-1.3C214.8,76.7,214.3,75.7,214.3,74.4z
		"/>
	<path fill-rule="evenodd" clip-rule="evenodd" fill="#6C6C6C" d="M225.7,79.3c0.2,0.5,0.5,0.9,0.9,1.1c0.4,0.3,0.9,0.4,1.6,0.4
		c1,0,1.7-0.3,2.3-1c0.6-0.6,0.9-1.5,0.9-2.5v-0.2c-0.4,0.6-0.9,1-1.4,1.3c-0.5,0.3-1.1,0.4-1.7,0.4c-1.3,0-2.3-0.4-3.1-1.3
		c-0.8-0.8-1.2-1.9-1.2-3.1c0-1.2,0.4-2.3,1.2-3.1c0.8-0.8,1.8-1.3,3-1.3c0.7,0,1.3,0.1,1.8,0.4c0.5,0.3,1,0.6,1.4,1.2v-1.4h1v7
		c0,1.5-0.4,2.6-1.1,3.4c-0.7,0.8-1.7,1.2-3,1.2c-0.9,0-1.8-0.2-2.4-0.7c-0.7-0.5-1.1-1.1-1.3-1.9H225.7L225.7,79.3z M224.9,74.4
		c0,1,0.3,1.8,0.9,2.5c0.6,0.7,1.4,1,2.2,1c0.8,0,1.6-0.3,2.2-1c0.6-0.7,1-1.4,1-2.3c0-1-0.3-1.8-0.9-2.4c-0.6-0.7-1.4-1-2.2-1
		c-0.9,0-1.6,0.3-2.2,1C225.2,72.6,224.9,73.4,224.9,74.4z"/>
	<path fill-rule="evenodd" clip-rule="evenodd" fill="#6C6C6C" d="M241,74.4c0-0.9-0.3-1.7-1-2.3c-0.6-0.7-1.4-1-2.2-1
		c-0.9,0-1.7,0.3-2.3,1c-0.6,0.7-0.9,1.5-0.9,2.5c0,0.9,0.3,1.7,0.9,2.4c0.6,0.6,1.4,1,2.3,1c0.9,0,1.6-0.3,2.2-1
		C240.7,76.1,241,75.3,241,74.4L241,74.4z M241,77.3c-0.3,0.5-0.8,0.9-1.4,1.1c-0.6,0.3-1.2,0.4-1.8,0.4c-1.2,0-2.3-0.4-3.1-1.3
		c-0.8-0.8-1.2-1.9-1.2-3.1c0-1.3,0.4-2.3,1.3-3.1c0.8-0.8,1.9-1.3,3.1-1.3c0.6,0,1.2,0.1,1.8,0.4c0.5,0.3,1,0.6,1.3,1.1v-1.3h1v8.4
		h-1V77.3z"/>
	<path fill-rule="evenodd" clip-rule="evenodd" fill="#6C6C6C" d="M244.9,78.6h-1.1v-8.4h1v1c0.3-0.4,0.5-0.6,0.9-0.8
		c0.3-0.2,0.7-0.3,1.1-0.3l0,1.2c-0.7,0.1-1.2,0.3-1.4,0.6c-0.3,0.3-0.4,0.9-0.4,1.7V78.6z"/>
	<path fill-rule="evenodd" clip-rule="evenodd" fill="#6C6C6C" d="M248.8,69.3h-1.1v-1.7h1.1V69.3L248.8,69.3z M247.7,78.6v-8.4h1.1
		v8.4H247.7z"/>
	<path fill-rule="evenodd" clip-rule="evenodd" fill="#6C6C6C" d="M257.6,74.4c0-0.9-0.3-1.7-1-2.3c-0.6-0.7-1.4-1-2.2-1
		c-0.9,0-1.7,0.3-2.3,1c-0.6,0.7-0.9,1.5-0.9,2.5c0,0.9,0.3,1.7,0.9,2.4c0.6,0.6,1.4,1,2.3,1c0.9,0,1.6-0.3,2.2-1
		C257.3,76.1,257.6,75.3,257.6,74.4L257.6,74.4z M257.6,77.3c-0.3,0.5-0.8,0.9-1.4,1.1c-0.6,0.3-1.2,0.4-1.8,0.4
		c-1.2,0-2.3-0.4-3.1-1.3c-0.8-0.8-1.2-1.9-1.2-3.1c0-1.3,0.4-2.3,1.3-3.1c0.8-0.8,1.9-1.3,3.1-1.3c0.6,0,1.2,0.1,1.8,0.4
		c0.5,0.3,1,0.6,1.3,1.1v-1.3h1v8.4h-1V77.3z"/>
	<g>
		<path fill-rule="evenodd" clip-rule="evenodd" fill="#F58220" d="M20.7,48h-9.4l-1.8,6.6c-0.3,1,0,1.4,0.8,1.4
			c0.8,0,1.3-0.5,1.6-1.4l1.6-5.7h7l-1.6,5.8c-1.1,3.9-4.3,5.8-9.8,5.8c-5.4,0-7.6-2-6.5-6l4.7-17.1c1.1-4,4.4-6,9.8-6
			c5.5,0,7.7,1.9,6.6,5.8L20.7,48L20.7,48z M14.8,43.7l1.8-6.6c0.3-0.9,0-1.4-0.8-1.4c-0.8,0-1.3,0.5-1.6,1.4l-1.8,6.6H14.8z"/>
		<path fill="#020202" d="M9,60.8c-3.2,0-5.3-0.7-6.3-2.1c-0.8-1.1-1-2.5-0.5-4.4l4.7-17.1C8.1,33.1,11.5,31,17,31
			c3.3,0,5.4,0.7,6.5,2.1c0.8,1,0.9,2.4,0.5,4.1l-3.1,11.1h-9.4l-1.8,6.4c-0.1,0.4-0.1,0.7,0,0.9c0.1,0.1,0.2,0.2,0.5,0.2
			c0.4,0,1-0.1,1.3-1.2l1.6-5.9h7.7l-1.7,6.2C18,58.8,14.6,60.8,9,60.8z M17,31.6c-5.3,0-8.4,1.9-9.5,5.8L2.8,54.5
			c-0.5,1.6-0.3,2.9,0.4,3.8C4.1,59.5,6,60.2,9,60.2c5.4,0,8.5-1.8,9.5-5.6l1.5-5.4h-6.3l-1.5,5.5c-0.4,1.4-1.2,1.7-1.9,1.7
			c-0.5,0-0.8-0.1-1-0.4C9,55.6,9,55.2,9.2,54.5l1.9-6.8h9.4L23.4,37c0.4-1.5,0.3-2.7-0.4-3.6C22.1,32.2,20.1,31.6,17,31.6z
			 M15.1,44h-3l1.9-7c0.4-1.4,1.2-1.6,1.9-1.6c0.5,0,0.8,0.1,1,0.4c0.2,0.3,0.3,0.8,0.1,1.4L15.1,44z M12.9,43.4h1.7l1.7-6.3
			c0.1-0.4,0.1-0.7,0-0.8c-0.1-0.1-0.2-0.2-0.5-0.2c-0.4,0-1,0.1-1.3,1.2L12.9,43.4z"/>
	</g>
	<g>
		<polygon fill-rule="evenodd" clip-rule="evenodd" fill="#F58220" points="26,60.1 19,60.1 28.7,24.8 35.7,24.8 		"/>
		<path fill="#020202" d="M26.2,60.4h-7.7l9.9-35.9h7.7L26.2,60.4z M19.4,59.8h6.3l9.5-34.6h-6.3L19.4,59.8z"/>
	</g>
	<g>
		<path fill-rule="evenodd" clip-rule="evenodd" fill="#F58220" d="M47.3,48h-9.4l-1.8,6.6c-0.3,1,0,1.4,0.8,1.4
			c0.8,0,1.3-0.5,1.6-1.4l1.6-5.7h7l-1.6,5.8c-1.1,3.9-4.3,5.8-9.8,5.8c-5.4,0-7.6-2-6.5-6l4.7-17.1c1.1-4,4.4-6,9.8-6
			c5.5,0,7.7,1.9,6.6,5.8L47.3,48L47.3,48z M41.5,43.7l1.8-6.6c0.3-0.9,0-1.4-0.8-1.4c-0.8,0-1.3,0.5-1.6,1.4l-1.8,6.6H41.5z"/>
		<path fill="#020202" d="M35.7,60.8c-3.2,0-5.3-0.7-6.3-2.1c-0.8-1.1-1-2.5-0.5-4.4l4.7-17.1c1.1-4.2,4.5-6.3,10.1-6.3
			c3.3,0,5.4,0.7,6.5,2.1c0.8,1,0.9,2.4,0.5,4.1l-3.1,11.1h-9.4l-1.8,6.4c-0.1,0.4-0.1,0.7,0,0.9c0.1,0.1,0.2,0.2,0.5,0.2
			c0.4,0,1-0.1,1.3-1.2l1.6-5.9h7.7l-1.7,6.2C44.7,58.8,41.3,60.8,35.7,60.8z M43.7,31.6c-5.3,0-8.4,1.9-9.5,5.8l-4.7,17.1
			c-0.5,1.6-0.3,2.9,0.4,3.8c0.9,1.2,2.9,1.8,5.8,1.8c5.4,0,8.5-1.8,9.5-5.6l1.5-5.4h-6.3l-1.5,5.5c-0.4,1.4-1.2,1.7-1.9,1.7
			c-0.5,0-0.8-0.1-1-0.4c-0.2-0.3-0.3-0.8-0.1-1.4l1.9-6.8h9.4L50,37c0.4-1.5,0.3-2.7-0.4-3.6C48.7,32.2,46.7,31.6,43.7,31.6z
			 M41.7,44h-3l1.9-7c0.4-1.4,1.2-1.6,1.9-1.6c0.5,0,0.8,0.1,1,0.4c0.2,0.3,0.3,0.8,0.1,1.4L41.7,44z M39.5,43.4h1.7l1.7-6.3
			c0.1-0.4,0.1-0.7,0-0.8c-0.1-0.1-0.2-0.2-0.5-0.2c-0.4,0-1,0.1-1.3,1.2L39.5,43.4z"/>
	</g>
	<g>
		<path fill-rule="evenodd" clip-rule="evenodd" fill="#F58220" d="M62,60.1h-7l6.3-22.9c0.2-0.9,0-1.3-0.9-1.3s-1.3,0.4-1.6,1.3
			l-6.3,23h-7l7.9-28.6h7l-0.3,1c1.1-0.8,2.7-1.2,4.7-1.2c1.3,0,2.3,0.3,3.2,1c0.9,0.7,1.1,1.7,0.8,3L62,60.1z"/>
		<path fill="#020202" d="M62.2,60.4h-7.7L61,37.1c0.1-0.3,0.1-0.6,0-0.7c-0.1-0.1-0.4-0.2-0.5-0.2c-0.7,0-1.1,0.3-1.2,1l-6.4,23.2
			h-7.7l8-29.2h7.7l-0.2,0.6c1.1-0.5,2.5-0.8,4.1-0.8c1.3,0,2.5,0.4,3.4,1.1c1,0.8,1.3,1.9,0.9,3.4L62.2,60.4z M55.4,59.8h6.3
			l6.7-24.5c0.3-1.2,0.1-2.1-0.7-2.7c-0.8-0.6-1.8-1-3-1c-1.9,0-3.4,0.4-4.5,1.1l-0.7,0.5l0.4-1.4h-6.3L46,59.8h6.3L58.6,37
			c0.3-1,0.9-1.5,1.9-1.5c0.5,0,0.8,0.1,1,0.4c0.2,0.3,0.3,0.7,0.1,1.3L55.4,59.8z"/>
	</g>
	<g>
		<path fill-rule="evenodd" clip-rule="evenodd" fill="#F58220" d="M84.3,44.1h-7l1.9-7c0.3-0.9,0-1.4-0.8-1.4
			c-0.8,0-1.4,0.5-1.6,1.4L72,54.6c-0.3,1,0,1.5,0.8,1.5c0.8,0,1.3-0.5,1.6-1.4l1.9-6.9h7l-1.9,7c-1.1,3.9-4.3,5.8-9.7,5.8
			c-5.6,0-7.8-2-6.7-6l4.7-17.1c1.1-4,4.4-6,10-6c5.4,0,7.6,1.9,6.5,5.8L84.3,44.1z"/>
		<path fill="#020202" d="M71.7,60.8c-3.3,0-5.4-0.7-6.5-2.1c-0.8-1.1-1-2.5-0.5-4.3l4.7-17.1C70.6,33.1,74,31,79.7,31
			c3.2,0,5.3,0.7,6.4,2c0.8,1,0.9,2.4,0.5,4.1l-2,7.3h-7.7l2-7.4c0.1-0.4,0.1-0.7,0-0.8c-0.1-0.1-0.3-0.2-0.5-0.2
			c-0.7,0-1.1,0.4-1.3,1.2l-4.8,17.5c-0.1,0.4-0.1,0.7,0,0.9c0.1,0.1,0.3,0.2,0.5,0.2c0.4,0,1-0.1,1.3-1.2l2-7.1h7.7l-2,7.4
			C80.6,58.8,77.2,60.8,71.7,60.8z M79.7,31.6c-5.4,0-8.6,1.9-9.7,5.8l-4.7,17.1c-0.4,1.6-0.3,2.9,0.4,3.8c0.9,1.2,2.9,1.8,6,1.8
			c5.3,0,8.4-1.8,9.4-5.6l1.8-6.6h-6.3l-1.8,6.6c-0.4,1.4-1.2,1.7-1.9,1.7c-0.5,0-0.8-0.1-1-0.4c-0.2-0.3-0.3-0.8-0.1-1.4l4.8-17.5
			c0.4-1.4,1.2-1.6,1.9-1.6c0.5,0,0.8,0.1,1,0.4c0.2,0.3,0.3,0.8,0.1,1.4l-1.8,6.6h6.3l1.9-6.8c0.4-1.5,0.3-2.7-0.3-3.6
			C84.7,32.2,82.7,31.6,79.7,31.6z"/>
	</g>
	<g>
		<path fill-rule="evenodd" clip-rule="evenodd" fill="#F58220" d="M82.9,54.4l4.7-17.1c1.1-4,4.4-6,10-6c2.1,0,3.9,0.5,5.3,1.4
			c1.4,0.9,1.8,2.4,1.2,4.4l-4.8,17.6c-1.1,3.9-4.3,5.8-9.7,5.8C84,60.5,81.8,58.5,82.9,54.4L82.9,54.4z M92.3,54.6l4.8-17.5
			c0.3-0.9,0-1.4-0.8-1.4c-0.8,0-1.4,0.5-1.6,1.4l-4.8,17.5c-0.3,1,0,1.5,0.8,1.5C91.5,56,92,55.6,92.3,54.6z"/>
		<path fill="#020202" d="M89.5,60.8c-3.3,0-5.4-0.7-6.5-2.1c-0.8-1.1-1-2.5-0.5-4.3l4.7-17.1c1.1-4.2,4.6-6.3,10.3-6.3
			c2.2,0,4,0.5,5.5,1.5c1.5,1,1.9,2.6,1.4,4.7l-4.8,17.6C98.4,58.8,95.1,60.8,89.5,60.8z M97.6,31.6c-5.4,0-8.6,1.9-9.7,5.8
			l-4.7,17.1c-0.4,1.6-0.3,2.9,0.4,3.8c0.9,1.2,2.9,1.8,6,1.8c5.3,0,8.4-1.8,9.4-5.6l4.8-17.6c0.5-1.9,0.1-3.2-1.1-4
			C101.3,32.1,99.6,31.6,97.6,31.6z M90.7,56.4c-0.5,0-0.8-0.1-1-0.4c-0.2-0.3-0.3-0.8-0.1-1.4l4.8-17.5c0.4-1.4,1.2-1.6,1.9-1.6
			c0.5,0,0.8,0.1,1,0.4c0.2,0.3,0.3,0.8,0.1,1.4l-4.8,17.5C92.2,56.1,91.3,56.4,90.7,56.4z M96.2,36c-0.7,0-1.1,0.4-1.3,1.2
			l-4.8,17.5c-0.1,0.4-0.1,0.7,0,0.9c0.1,0.1,0.3,0.2,0.5,0.2c0.4,0,1-0.1,1.3-1.2l4.8-17.5c0.1-0.4,0.1-0.7,0-0.8
			C96.7,36.1,96.5,36,96.2,36z"/>
	</g>
	<g>
		<path fill-rule="evenodd" clip-rule="evenodd" fill="#F58220" d="M265.8,59.9l-0.5-0.5c0.6-0.5,1-0.9,1.2-1.4h-1.2l0.6-2.3h2.8
			l-0.4,1.6C268,58.3,267.2,59.2,265.8,59.9z"/>
		<path fill="#020202" d="M265.7,60.2l-0.8-0.8l0.2-0.1c0.4-0.3,0.8-0.7,1-1H265l0.7-2.7h3.3l-0.5,1.8c-0.3,1-1.2,1.9-2.6,2.7
			L265.7,60.2z M265.6,59.5l0.2,0.2c1.3-0.7,2-1.5,2.3-2.4l0.4-1.3H266l-0.5,1.8h1.3l-0.1,0.3C266.5,58.6,266.2,59,265.6,59.5z"/>
	</g>
	<g>
		<polygon fill-rule="evenodd" clip-rule="evenodd" fill="#F58220" points="275.9,58.1 269.5,58.1 273.8,42.4 277.2,42.4 
			273.5,56.1 276.5,56.1 		"/>
		<path fill="#020202" d="M276.1,58.3h-6.9l4.4-16.1h3.9l-3.8,13.6h3L276.1,58.3z M269.8,57.8h6l0.4-1.6h-3l3.8-13.6h-3L269.8,57.8z
			"/>
	</g>
	<g>
		<path fill-rule="evenodd" clip-rule="evenodd" fill="#F58220" d="M284.3,58.1H282l-0.1-0.4c-0.6,0.4-1.3,0.6-2,0.6
			c-0.8,0-1.4-0.2-1.9-0.6c-0.5-0.4-0.6-0.9-0.4-1.5l2.5-9.1c0.1-0.5,0.5-1,1-1.3c0.5-0.3,1.1-0.5,1.7-0.5c0.9,0,1.5,0.2,1.8,0.5
			l0.9-3.4h3.1L284.3,58.1L284.3,58.1z M281.9,55.7l2.2-7.9c0.1-0.4,0-0.6-0.4-0.6c-0.4,0-0.6,0.2-0.7,0.6l-2.2,7.9
			c-0.1,0.4,0,0.6,0.4,0.6C281.5,56.3,281.8,56.1,281.9,55.7z"/>
		<path fill="#020202" d="M279.9,58.5c-0.8,0-1.5-0.2-2-0.6c-0.5-0.4-0.7-1-0.5-1.7l2.5-9.1c0.2-0.6,0.5-1.1,1.1-1.4
			c0.6-0.3,1.2-0.5,1.8-0.5c0.7,0,1.3,0.1,1.7,0.3l0.9-3.2h3.6l-4.4,16.1h-2.7l-0.1-0.3C281.1,58.3,280.5,58.5,279.9,58.5z
			 M282.8,45.5c-0.6,0-1.1,0.1-1.6,0.4c-0.5,0.3-0.8,0.7-0.9,1.2l-2.5,9.1c-0.2,0.6,0,1,0.3,1.3c0.4,0.3,1,0.5,1.7,0.5
			c0.6,0,1.3-0.2,1.9-0.6l0.2-0.1l0.2,0.5h2l4.2-15.2h-2.6l-1,3.5l-0.3-0.3C284.2,45.7,283.6,45.5,282.8,45.5z M281.2,56.5
			c-0.2,0-0.4-0.1-0.5-0.2c-0.1-0.2-0.1-0.4-0.1-0.6l2.2-7.9c0.1-0.5,0.5-0.7,0.9-0.7c0.2,0,0.4,0.1,0.5,0.2
			c0.1,0.1,0.1,0.4,0.1,0.6l-2.2,7.9C282,56.2,281.6,56.5,281.2,56.5z M283.7,47.5c-0.2,0-0.4,0-0.5,0.4l-2.2,7.9c0,0.1,0,0.2,0,0.3
			c0,0,0.1,0,0.2,0c0.2,0,0.4,0,0.5-0.4l2.2-7.9c0-0.2,0-0.2,0-0.2C283.8,47.5,283.8,47.5,283.7,47.5z"/>
	</g>
	<g>
		<path fill-rule="evenodd" clip-rule="evenodd" fill="#F58220" d="M293,58.1h-2.7l0.1-0.5c-0.4,0.4-1.1,0.7-2.2,0.7
			c-1.7,0-2.4-0.7-2-2l0.7-2.5c0.2-0.6,0.5-1.1,1-1.5c0.5-0.4,1.5-1,2.9-1.6c0.8-0.4,1.3-0.7,1.3-0.9l0.5-1.9c0.1-0.4,0-0.6-0.4-0.6
			c-0.4,0-0.8,0.5-1,1.5c-0.1,0.2-0.1,0.5-0.2,0.8c-0.1,0.4-0.1,0.6-0.2,0.8h-3l0.7-2.5c0.5-1.7,1.9-2.6,4.4-2.6
			c2.3,0,3.2,0.9,2.7,2.7L293,58.1L293,58.1z M290.5,55.7l0.9-3.3c-0.8,0.2-1.2,0.5-1.3,1l-0.6,2.3c-0.1,0.4,0,0.6,0.4,0.6
			C290.2,56.3,290.4,56.1,290.5,55.7z"/>
		<path fill="#020202" d="M288.2,58.5c-1,0-1.7-0.2-2-0.7c-0.3-0.4-0.3-0.9-0.2-1.6l0.7-2.5c0.2-0.6,0.5-1.2,1.1-1.6
			c0.5-0.4,1.3-0.9,2.6-1.4h-2.7l0.8-2.8c0.5-1.8,2.1-2.7,4.6-2.7c1.4,0,2.3,0.3,2.7,0.9c0.4,0.5,0.4,1.2,0.2,2l-2.8,10.3h-3.2
			l0-0.1C289.6,58.4,289,58.5,288.2,58.5z M292.3,47c0.2,0,0.4,0.1,0.5,0.2c0.1,0.2,0.1,0.4,0.1,0.7l-0.5,1.9
			c-0.1,0.2-0.3,0.5-1.4,1c-1.4,0.6-2.4,1.1-2.9,1.6c-0.5,0.4-0.8,0.9-1,1.4l-0.7,2.5c-0.1,0.5-0.1,0.9,0.1,1.2
			c0.3,0.3,0.8,0.5,1.7,0.5c1,0,1.7-0.2,2-0.6l0.7-0.8l-0.3,1.2h2.3l2.7-9.9c0.2-0.7,0.2-1.3-0.1-1.7c-0.4-0.5-1.2-0.7-2.4-0.7
			c-2.4,0-3.8,0.8-4.2,2.4l-0.6,2.3h2.5c0-0.2,0.1-0.4,0.1-0.6c0.1-0.4,0.1-0.6,0.2-0.8C291.3,48,291.6,47,292.3,47z M292.3,47.5
			c-0.2,0-0.5,0.2-0.8,1.4c0,0.2-0.1,0.4-0.2,0.8c0,0.2-0.1,0.4-0.1,0.6c0.7-0.3,0.8-0.5,0.8-0.5l0.5-1.9c0.1-0.2,0-0.3,0-0.3
			C292.5,47.5,292.4,47.5,292.3,47.5z M289.9,56.5c-0.3,0-0.4-0.1-0.5-0.2c-0.1-0.2-0.1-0.4-0.1-0.6l0.6-2.3
			c0.2-0.5,0.7-0.9,1.5-1.1l0.4-0.1l-1,3.6C290.6,56.2,290.3,56.5,289.9,56.5z M291.1,52.8c-0.5,0.2-0.7,0.4-0.8,0.7l-0.6,2.3
			c0,0.1,0,0.2,0,0.2c0,0,0.1,0,0.2,0c0.2,0,0.4,0,0.5-0.4L291.1,52.8z"/>
	</g>
	<g>
		<polygon fill-rule="evenodd" clip-rule="evenodd" fill="#F58220" points="297.2,58.1 294.3,58.1 295,55.8 297.8,55.8 		"/>
		<path fill="#020202" d="M297.3,58.3H294l0.7-2.7h3.3L297.3,58.3z M294.6,57.8h2.4l0.5-1.8h-2.4L294.6,57.8z"/>
	</g>
</g>
</svg>
