<?xml version="1.0" encoding="UTF-8"?>
<svg id="Layer_1" xmlns="http://www.w3.org/2000/svg" version="1.1" xmlns:xlink="http://www.w3.org/1999/xlink" viewBox="0 0 81.7 90">
  <!-- Generator: Adobe Illustrator 29.8.1, SVG Export Plug-In . SVG Version: 2.1.1 Build 2)  -->
  <defs>
    <style>
      .st0 {
        fill: #f58220;
      }

      .st0, .st1 {
        fill-rule: evenodd;
      }

      .st2 {
        fill: #020202;
      }

      .st1 {
        fill: url(#Gradiente_sem_nome);
      }
    </style>
    <linearGradient id="Gradiente_sem_nome" data-name="Gradiente sem nome" x1="45.88" y1="99.08" x2="34.52" y2="-9" gradientTransform="translate(0 89.89) scale(1 -1)" gradientUnits="userSpaceOnUse">
      <stop offset="0" stop-color="#d6cc70"/>
      <stop offset="1" stop-color="#fff"/>
    </linearGradient>
  </defs>
  <g>
    <polygon class="st1" points="63.7 26.1 63 24.7 62.8 24.4 62.6 24 62.4 23.7 62.2 23.4 62 23.1 61.8 22.8 61.6 22.5 61.4 22.2 61.2 21.9 61 21.6 60.8 21.3 60.6 21.1 60.4 20.8 60.2 20.6 60 20.3 59.7 20.1 59.5 19.9 59.3 19.6 59.1 19.4 58.8 19.2 58.6 19 58.4 18.8 58.2 18.7 57.9 18.5 57.7 18.3 57.5 18.1 57.2 18 57 17.8 56.7 17.7 56.5 17.6 56.2 17.4 56 17.3 55.7 17.2 55.5 17.1 55.2 17 54.9 16.9 54.7 16.8 54.4 16.7 54.1 16.6 53.8 16.5 53.6 16.4 53.3 16.4 53 16.3 52.7 16.3 52.4 16.2 52.1 16.2 51.8 16.1 51.5 16.1 51.1 16.1 50.8 16.1 50.5 16 50.2 16 49.8 16 49.5 16 49.1 16 48.8 16.1 48.5 16.1 48.1 16.1 47.7 16.1 47.4 16.2 47 16.2 46.6 16.3 46.3 16.4 45.7 16.5 45.1 16.6 44.5 16.7 43.9 16.9 43.4 17 42.8 17.2 42.2 17.4 41.6 17.6 41.1 17.9 40.5 18.1 40 18.4 39.4 18.6 38.8 18.9 38.3 19.2 37.7 19.6 37.2 19.9 36.6 20.3 36.1 20.6 35.6 21 35 21.4 34.5 21.8 33.9 22.3 33.4 22.7 32.9 23.2 32.3 23.7 31.8 24.2 31.3 24.7 30.8 25.2 30.2 25.8 29.7 26.4 29.2 26.9 28.7 27.5 28.2 28.1 27.7 28.8 27.2 29.4 26.8 30 26.3 30.6 25.9 31.3 25.4 31.9 25 32.5 24.6 33.2 24.2 33.8 23.8 34.5 23.5 35.1 23.1 35.8 22.8 36.4 22.5 37.1 22.1 37.8 21.8 38.4 21.5 39.1 21.3 39.8 21 40.5 20.7 41.2 20.5 41.9 20.3 42.5 20.1 43.2 19.9 44 19.7 44.7 19.5 45.4 19.3 46.1 19.2 46.8 19 47.5 18.9 48.3 18.8 49 18.7 49.8 18.6 50.5 18.5 51.3 18.4 52 18.4 52.8 18.4 53.5 18.3 54.2 18.3 54.9 18.3 55.6 18.3 56.3 18.4 57 18.4 57.6 18.5 58.3 18.6 58.9 18.7 59.5 18.8 60.1 18.9 60.7 19 61.3 19.2 61.9 19.3 62.5 19.5 63 19.7 63.6 19.9 64.1 20.1 64.6 20.3 65.2 20.6 65.7 20.8 66.2 21.1 66.7 21.4 67.1 21.7 67.6 22 68.1 22.3 68.5 22.7 68.9 23 69.4 23.4 69.8 23.7 70.1 24.1 70.5 24.4 70.8 24.8 71.2 25.2 71.5 25.6 71.8 26 72 26.4 72.3 26.8 72.5 27.2 72.8 27.6 73 28 73.2 28.5 73.3 28.9 73.5 29.4 73.6 29.8 73.8 30.3 73.9 30.8 74 31.3 74 31.8 74.1 32.3 74.2 32.8 74.2 33.3 74.2 33.9 74.2 34.4 74.2 35 74.1 35.5 74.1 36.1 74 36.7 73.9 37.1 73.9 37.4 73.8 37.8 73.7 38.2 73.6 38.5 73.5 38.9 73.4 39.2 73.4 39.6 73.3 40 73.1 40.3 73 40.7 72.9 41 72.8 41.4 72.7 41.7 72.5 42.1 72.4 42.4 72.2 42.8 72.1 43.1 71.9 43.4 71.8 43.8 71.6 44.1 71.4 44.5 71.3 44.8 71.1 45.1 70.9 45.5 70.7 45.8 70.5 46.1 70.3 46.5 70.1 46.8 69.9 47.1 69.7 47.5 69.4 47.8 69.2 48.1 69 48.5 68.7 48.8 68.5 49.1 68.2 49.4 68 49.7 67.7 50.1 67.4 50.4 67.1 50.7 66.9 51 66.6 51.3 66.3 51.6 66 51.9 65.7 52.2 65.4 52.6 65.1 52.9 64.7 53.2 64.4 53.5 64.1 53.8 63.7 54.1 63.4 54.4 63.1 54.7 62.7 55 62.3 55.3 62 55.5 61.6 55.8 61.2 56.1 60.9 56.4 60.5 56.7 60.1 57 59.7 57.3 59.3 57.9 58.3 68.8 56.5 66.9 60 66.5 60.6 66.1 61.2 65.8 61.8 65.4 62.4 65 63 64.6 63.6 64.3 64.1 63.9 64.7 63.5 65.3 63.1 65.8 62.7 66.4 62.3 66.9 61.9 67.4 61.4 67.9 61 68.5 60.6 69 60.2 69.5 59.7 70 59.3 70.5 58.8 70.9 58.4 71.4 57.9 71.9 57.5 72.4 57 72.8 56.6 73.3 56.1 73.7 55.6 74.1 55.1 74.5 54.6 75 54.1 75.4 53.7 75.8 53.2 76.2 52.7 76.5 52.2 76.9 51.6 77.3 51.1 77.6 50.6 78 50.1 78.3 49.6 78.7 49.1 79 48.6 79.3 48.1 79.6 47.5 79.9 47 80.2 46.5 80.4 45.9 80.7 45.4 80.9 44.9 81.2 44.3 81.4 43.8 81.6 43.3 81.9 42.7 82.1 42.2 82.3 41.6 82.4 41.1 82.6 40.5 82.8 40 82.9 39.4 83.1 38.9 83.2 38.3 83.4 37.7 83.5 37.2 83.6 36.6 83.7 35.8 83.8 34.9 83.9 34.1 84 33.2 84.1 32.4 84.1 31.6 84.1 30.8 84.1 30 84.1 29.2 84 28.5 84 27.7 83.9 27 83.7 26.2 83.6 25.5 83.4 24.8 83.2 24.1 83 23.4 82.7 22.7 82.4 22.1 82.1 21.4 81.8 20.8 81.5 20.1 81.1 19.5 80.7 18.9 80.3 18.3 79.8 17.8 79.4 17.2 78.9 16.7 78.3 16.1 77.8 15.6 77.2 15.1 76.7 14.6 76.1 14.1 75.4 13.7 74.8 13.3 74.1 12.8 73.5 12.5 72.8 12.1 72.1 11.7 71.4 11.4 70.7 11.1 69.9 10.8 69.2 10.5 68.4 10.3 67.6 10 66.8 9.8 66 9.6 65.2 9.5 64.4 9.3 63.6 9.2 62.7 9.1 61.9 9 61 8.9 60.1 8.9 59.2 8.9 58.3 8.8 57.3 8.9 56.4 8.9 55.5 8.9 54.5 9 53.5 9.1 52.5 9.2 51.5 9.3 50.5 9.5 49.5 9.5 49 9.6 48.5 9.7 48 9.8 47.6 9.9 47.1 10 46.6 10.1 46.1 10.2 45.6 10.3 45.2 10.4 44.7 10.5 44.2 10.7 43.7 10.8 43.3 10.9 42.8 11.1 42.3 11.2 41.8 11.4 41.4 11.5 40.9 11.7 40.4 11.8 40 12 39.5 12.2 39 12.3 38.6 12.5 38.1 12.7 37.6 12.9 37.2 13.1 36.7 13.3 36.2 13.5 35.8 13.7 35.3 13.9 34.9 14.1 34.4 14.3 33.9 14.6 33.5 14.8 33 15 32.6 15.3 32.1 15.5 31.7 15.7 31.2 16 30.8 16.2 30.3 16.5 29.9 16.8 29.5 17 29 17.3 28.6 17.6 28.2 17.8 27.7 18.1 27.3 18.4 26.9 18.7 26.5 19 26 19.3 25.6 19.6 25.2 19.9 24.8 20.2 24.4 20.5 24 20.8 23.5 21.2 23.1 21.5 22.7 21.8 22.3 22.2 21.9 22.5 21.5 22.8 21.1 23.2 20.7 23.5 20.4 23.8 20 24.2 19.6 24.5 19.3 24.8 18.9 25.2 18.6 25.5 18.2 25.8 17.9 26.2 17.6 26.5 17.2 26.8 16.9 27.2 16.6 27.5 16.3 27.9 15.9 28.2 15.6 28.6 15.3 28.9 15 29.3 14.7 29.6 14.4 30 14.2 30.3 13.9 30.7 13.6 31 13.3 31.4 13.1 31.8 12.8 32.1 12.5 32.5 12.3 32.9 12 33.2 11.8 33.6 11.5 34 11.3 34.3 11.1 34.7 10.9 35.1 10.6 35.5 10.4 35.8 10.2 36.2 10 36.6 9.8 37 9.6 37.4 9.4 37.7 9.2 38.1 9 38.5 8.9 38.9 8.7 39.3 8.5 39.7 8.4 40.1 8.2 40.5 8 40.9 7.9 41.2 7.8 41.6 7.6 42 7.5 42.4 7.4 42.8 7.2 43.2 7.1 43.6 7 44 6.9 44.4 6.8 44.8 6.7 45.2 6.6 45.7 6.5 46.1 6.4 46.5 6.4 46.9 6.3 47.5 6.2 48 6.1 48.6 6.1 49.2 6 49.8 5.9 50.3 5.9 50.9 5.9 51.4 5.9 52 5.9 52.5 5.9 53.1 5.9 53.6 5.9 54.1 6 54.7 6 55.2 6.1 55.7 6.2 56.2 6.3 56.7 6.4 57.2 6.5 57.7 6.6 58.2 6.7 58.7 6.9 59.2 7 59.7 7.2 60.1 7.4 60.6 7.6 61.1 7.8 61.5 8 62 8.2 62.4 8.5 62.9 8.7 63.3 9 63.7 9.3 64.2 9.6 64.6 9.9 65 10.2 65.4 10.5 65.8 10.8 66.2 11.2 66.5 11.5 66.9 11.9 67.3 12.2 67.6 12.6 67.9 13 68.3 13.4 68.6 13.8 68.9 14.2 69.2 14.6 69.5 15.1 69.8 15.5 70.1 16 70.4 16.4 70.7 16.9 70.9 17.4 71.2 17.9 71.4 18.4 71.7 18.9 71.9 19.4 72.1 19.9 72.3 20.5 72.5 21 72.7 21.6 72.9 22.1 63.7 26.1"/>
    <path class="st2" d="M31.6,84.4h-1.6l-1.6-.1-1.5-.2-1.5-.3-1.4-.4-1.4-.5-1.3-.6-1.3-.7-1.2-.8-1.2-.9-1.1-1-1.1-1.1-1-1.2-.9-1.3-.9-1.3-.8-1.4-.7-1.4-.6-1.5-.5-1.6-.4-1.6-.4-1.7-.3-1.7-.2-2.1-.1-1.8v-3.8l.1-2,.2-2,.6-4,.8-3.4,1-3.3,1.2-3.3,1.6-3.7,1.7-3.2,2.1-3.5,2.4-3.4,3-3.6,2.7-2.8,2.8-2.5,2.9-2.2,2.6-1.7,2.7-1.5,2.7-1.3,2.8-1,2.8-.8,2.2-.4,1.7-.2,1.7-.1h1.1l1.6.1,1.6.2,1.6.3,1.5.4,1.5.5,1.4.6,1.4.7,1.3.8,1.3.9,1.2,1,1.1,1.1,1,1.2,1,1.3.9,1.3.8,1.4.7,1.5.7,1.6.7,2-9.8,4.2-1.8-3.3-1.2-1.7-1.3-1.4-1.1-1-1.1-.8-1.2-.7-1.3-.5-1.4-.4-1.5-.2-1.9-.1-2.1.1-1.5.2-1.7.4-1.7.5-1.7.6-1.7.8-1.6.9-1.6,1.1-1.6,1.2-1.6,1.3-1.6,1.5-1.6,1.6-1.5,1.8-1.4,1.8-1.3,1.9-1.2,1.9-1.1,1.9-1,2-.9,2-.8,2-.6,2.1-.5,2.1-.4,2.2-.3,2.3-.2,2.2-.1,2.1.1,2,.2,1.9.3,1.8.4,1.7.4,1.1.4,1,.5,1,.5,1,.6.9.6.9.7.8.7.8.7.7.7.6.8.6.8.5.8.4.8.4.9.3.9.2.9.2,1,.1h2.1l1.1-.1,2.2-.4,2.1-.6,2.1-.7,2-.9,2-1.1,2.3-1.6,2.2-1.8,2.2-2.1,2.1-2.4,2-2.6,1-1.5,11.7-2-3.7,6.5-1.9,2.9-1.6,2.2-1.7,2.1-1.8,2-1.9,1.8-1.9,1.7-2,1.6-2,1.5-2.1,1.3-2.1,1.2-2.2,1-2.2.8-2.2.7-2.3.5-.9.1-1.7.2-1.7.2h-1.7ZM52,6.2h-1.6l-1.7.1-3,.5-2.8.7-2.7.9-2.7,1.2-2.6,1.4-2.6,1.7-2.5,1.9-2.8,2.4-2.7,2.7-3,3.5-2.5,3.3-2.2,3.4-1.9,3.6-1.7,3.7-1.2,3.2-1,3.3-.8,3.3-.4,2.4-.3,2-.2,2-.1,1.9v3.7l.1,1.8.2,1.7.3,1.7.4,1.6.4,1.6.5,1.5.6,1.5.7,1.4.8,1.4.8,1.3.9,1.2,1,1.2,1,1.1,1.1,1,1.1.9,1.2.8,1.2.7,1.3.6,1.3.5,1.4.4,1.4.3,1.5.2,1.5.1h1.6l1.6-.1,1.7-.1,2.3-.3,2.2-.5,2.2-.6,2.2-.8,2.1-.9,2.1-1.1,2.1-1.2,2-1.4,2-1.5,1.9-1.7,1.8-1.8,1.8-1.9,1.7-2,1.6-2.1,1.6-2.2,1.8-3,2-3.5-10.1,1.7-2.6,3.6-2.1,2.4-2.2,2.2-2.2,1.9-2.3,1.6-2,1.2-2.1,1-2.1.8-2.2.6-1.5.3-1.8.2-1.1.1h-1.6l-1-.1-1-.2-1-.2-.9-.3-.9-.4-.9-.4-.8-.5-.8-.6-.8-.6-.7-.7-.7-.8-.7-.9-.6-.9-.6-1-.5-1-.5-1-.4-1.1-.4-1.1-.3-1.2-.3-1.2-.2-1.3-.2-2-.1-2.1.1-2.2.2-2.3.3-2.3.4-2.2.5-2.2.7-2.1.8-2.1.9-2,1-2,1.1-2,1.2-1.9,1.3-1.9,1.5-1.9,1.5-1.8,1.6-1.7,1.8-1.2,1.6-1.4,1.6-1.2,1.7-1.1,1.7-.9,1.7-.8,1.7-.6,1.7-.5,1.2-.3,2.5-.3,1.8-.1,2,.1,1.5.3,1.4.4,1.3.5,1.3.7,1.2.9,1.2,1,1.1,1.2,1,1.4,1.2,1.9.8,1.5,8.7-3.7-.7-1.9-.7-1.5-.8-1.5-.8-1.4-.9-1.3-1-1.2-1-1.1-1.1-1-1.2-.9-1.2-.8-1.3-.7-1.4-.6-1.4-.5-1.4-.4-1.5-.3-1.5-.2-1.6-.1-1.1-.4Z"/>
  </g>
  <path class="st0" d="M67.2,24.6c-2-4-4.1-7.4-7.1-8.9s-6.7-1.9-10.9-1.2c-6.7,1.1-12.9,5-18.5,11.7-5.6,6.7-9,14.1-10.3,22.2-1.3,8.6,0,15.5,3.8,20.7,3.8,5.1,9.1,7.1,15.9,6,4.2-.7,8.1-2.4,11.7-5,3.7-2.6,7.2-7.9,10.3-12.4l7.2-.3c-3.7,6.5-8.3,12.7-13.5,16.8-5.1,4.1-10.6,6.6-16.3,7.6-8.8,1.5-15.7-.9-20.5-7.1s-6.4-14.6-4.8-25.4c.7-5,2.3-9.9,4.5-14.7,2.3-4.8,5.2-9.2,8.8-13.3,3.4-3.9,7-7,10.8-9.3,3.8-2.4,7.8-3.9,12-4.6,6-1,11.6-.8,15.4,2.5,3.8,3.3,5.3,6.5,7.4,12.2l-5.9,2.5Z"/>
</svg>