<svg xmlns="http://www.w3.org/2000/svg" id="Layer_1" data-name="Layer 1" viewBox="0 0 442.3 508.52"><title>2</title><path d="M376.7,0H131.3c2,61.4-43.6,101.1-98.2,98.2v68.4C37.6,423,254,508,254,508s214.3-85,220.9-341.4V98.2C407.9,103.9,371.7,41.3,376.7,0ZM49.5,166.6V114.2a106.6,106.6,0,0,0,97.9-97.9h98.5V123.1a98.36,98.36,0,0,0-89.6,89.6H52.6A353.42,353.42,0,0,1,49.5,166.6ZM245.8,485.9C144.9,434.8,74.6,338.7,55,229H156.2a98.36,98.36,0,0,0,89.6,89.6V485.9Zm-73.6-265A81.8,81.8,0,1,1,254,302.7,81.9,81.9,0,0,1,172.2,220.9Zm90,265V318.6A98.36,98.36,0,0,0,351.8,229H453C433.4,338.7,363.1,434.8,262.2,485.9ZM458.5,166.6a353.42,353.42,0,0,1-3.1,46.1H351.7a98.36,98.36,0,0,0-89.6-89.6V16.4h98.5a106.59,106.59,0,0,0,97.9,97.8Z" transform="translate(-32.85 0.25)" stroke="#000" stroke-miterlimit="10" stroke-width="0.5"></path><polygon points="262.95 182.65 203.35 242.25 179.35 218.35 167.75 229.85 203.35 265.45 274.55 194.15 262.95 182.65" stroke="#000" stroke-miterlimit="10" stroke-width="0.5"></polygon></svg>