<svg xmlns="http://www.w3.org/2000/svg" id="Layer_1" data-name="Layer 1" viewBox="0 0 663.53 663.53"><title>4</title><g id="Discount_1" data-name="Discount 1"><path d="M731.77,400c0,19.7-11.54,37.47-28,53.67C694,463.33,682.5,472.6,672.4,482c-8.07,7.5-15.33,14.87-18.73,23.07-3.57,8.56-3.8,19.2-3.5,30.43.36,13.87,1.86,28.5,2,42.17.2,23-4.1,43.46-17.53,56.93s-33.9,17.73-56.93,17.53c-13.67-.13-28.3-1.6-42.14-2-11.23-.3-21.9-.07-30.46,3.5-8.2,3.4-15.57,10.66-23.07,18.73-9.4,10.1-18.67,21.57-28.33,31.37-16.2,16.46-34,28-53.67,28s-37.47-11.54-53.67-28C336.67,694,327.4,682.5,318,672.4c-7.5-8.07-14.9-15.33-23.07-18.73-8.56-3.57-19.23-3.8-30.43-3.5-13.87.36-28.5,1.83-42.17,2-23,.2-43.5-4.1-56.93-17.53s-17.73-33.9-17.53-56.93c.1-13.67,1.6-28.3,2-42.17.3-11.23.07-21.87-3.5-30.47-3.4-8.16-10.66-15.53-18.73-23-10.07-9.4-21.53-18.67-31.37-28.33-16.43-16.2-28-34-28-53.67s11.57-37.47,28-53.67c9.84-9.66,21.3-18.93,31.37-28.33,8.07-7.5,15.33-14.87,18.73-23,3.57-8.6,3.8-19.24,3.5-30.47-.36-13.87-1.86-28.5-2-42.17-.2-23,4.06-43.46,17.53-56.93s33.9-17.73,56.93-17.53c13.67.13,28.3,1.6,42.17,2,11.2.3,21.87.07,30.43-3.5,8.17-3.4,15.57-10.66,23.07-18.73,9.4-10.1,18.67-21.57,28.33-31.37,16.2-16.46,34-28,53.67-28s37.47,11.54,53.67,28C463.33,106,472.6,117.5,482,127.6c7.5,8.07,14.87,15.33,23.07,18.73,8.56,3.57,19.23,3.8,30.46,3.5,13.84-.36,28.47-1.83,42.14-2,23-.2,43.46,4.1,56.93,17.53s17.73,33.9,17.53,56.93c-.1,13.67-1.6,28.3-2,42.17-.3,11.23-.07,21.87,3.5,30.43,3.4,8.2,10.66,15.57,18.73,23.07,10.1,9.4,21.57,18.67,31.4,28.33,16.43,16.2,28,34,28,53.67Zm-33.34,0c0-6.27-2.93-11.83-6.86-17.27-5.47-7.53-12.94-14.56-20.74-21.53-19.43-17.37-40.16-34.67-48-53.47-8.07-19.5-5.9-46.63-4.54-72.6.57-10.5.9-20.73-.5-29.83-1-6.37-2.66-12.17-6.8-16.3s-10-5.87-16.33-6.83c-9.1-1.4-19.33-1.07-29.83-.5-26,1.36-53.1,3.53-72.57-4.54-18.83-7.8-36.13-28.5-53.5-48-7-7.8-14-15.27-21.53-20.74-5.44-3.93-11-6.86-17.27-6.86s-11.83,2.93-17.27,6.86c-7.53,5.47-14.56,12.94-21.53,20.74-17.37,19.46-34.67,40.16-53.5,48-19.47,8.07-46.6,5.9-72.57,4.54-10.5-.57-20.73-.9-29.83.5-6.4,1-12.17,2.66-16.33,6.83s-5.84,9.93-6.8,16.3c-1.4,9.1-1.07,19.33-.54,29.83,1.4,26,3.57,53.1-4.5,72.57-7.8,18.83-28.5,36.13-48,53.5-7.8,7-15.27,14-20.74,21.53-3.93,5.44-6.86,11-6.86,17.27s2.93,11.83,6.86,17.27c5.47,7.53,12.94,14.56,20.74,21.53,19.46,17.37,40.16,34.67,48,53.5,8.07,19.47,5.9,46.6,4.5,72.57-.53,10.5-.86,20.73.54,29.83,1,6.37,2.63,12.17,6.8,16.3s9.93,5.87,16.33,6.83c9.1,1.4,19.33,1.07,29.83.5,26-1.36,53.1-3.53,72.57,4.54,18.83,7.8,36.13,28.5,53.5,48,7,7.8,14,15.27,21.53,20.74,5.44,3.93,11,6.86,17.27,6.86s11.83-2.93,17.27-6.86c7.53-5.47,14.56-12.94,21.53-20.74,17.37-19.46,34.67-40.16,53.5-48,19.47-8.07,46.6-5.9,72.57-4.54,10.5.57,20.73.9,29.83-.5,6.37-1,12.17-2.66,16.33-6.83s5.84-9.93,6.8-16.3c1.4-9.1,1.07-19.33.5-29.83-1.36-26-3.53-53.1,4.54-72.6,7.8-18.8,28.53-36.1,48-53.47,7.8-7,15.27-14,20.74-21.53C695.5,411.83,698.43,406.27,698.43,400Zm-351-58.73a33.84,33.84,0,1,1,0-47.87A33.84,33.84,0,0,1,347.4,341.27Zm149-61.27A16.67,16.67,0,1,1,520,303.57L303.57,520A16.67,16.67,0,1,1,280,496.43ZM452.6,458.77a33.83,33.83,0,1,1,0,47.86A33.84,33.84,0,0,1,452.6,458.77Z" transform="translate(-68.23 -68.23)"></path></g></svg>